<?xml version="1.0" encoding="utf-8"?>
<!-- Generator: Adobe Illustrator 22.0.1, SVG Export Plug-In . SVG Version: 6.00 Build 0)  -->
<svg version="1.1" id="Layer_1" xmlns="http://www.w3.org/2000/svg" xmlns:xlink="http://www.w3.org/1999/xlink" x="0px" y="0px"
	 viewBox="0 0 56 56" style="enable-background:new 0 0 56 56;" xml:space="preserve">
<style type="text/css">
	.st0{fill:#FFFFFF;stroke:#0180C7;stroke-miterlimit:10;}
	.st1{fill:#0180C7;}
	.st2{fill:#FFFFFF;}
</style>
<circle class="st0" cx="28" cy="28" r="27.5"/>
<circle class="st1" cx="28" cy="28" r="22"/>
<g>
	<path class="st2" d="M15.8,31.6c1.6,0,3,0,4.5,0c0.8,0,1.3,0.4,1.3,1c0.1,0.8-0.4,1.4-1.3,1.4c-1.7,0-3.3,0-5,0c-0.5,0-1,0-1.4,0
		c-0.6,0-1.2-0.2-1.5-0.8c-0.3-0.6-0.1-1.2,0.3-1.7c1.6-2,3.2-4.1,4.8-6.1c0.1-0.1,0.2-0.2,0.3-0.4c-0.1-0.2-0.2-0.1-0.4-0.1
		c-1.1,0-2.2,0-3.4,0c-0.3,0-0.5,0-0.8-0.1c-0.6-0.1-1-0.7-0.8-1.3c0.1-0.4,0.4-0.7,0.8-0.8c0.2-0.1,0.5-0.1,0.8-0.1
		c1.8,0,3.7,0,5.5,0c0.3,0,0.7,0,1,0.1c0.7,0.2,1,0.9,0.7,1.6c-0.2,0.6-0.6,1.1-1,1.6c-1.4,1.7-2.7,3.4-4.1,5.2
		C16,31.2,15.9,31.4,15.8,31.6L15.8,31.6z"/>
	<path class="st2" d="M27.8,26.1c0.2-0.3,0.5-0.6,0.9-0.7c0.8-0.2,1.6,0.4,1.6,1.2c0,2.1,0,4.1,0,6.2c0,0.5-0.4,1-0.9,1.2
		c-0.5,0.2-1.1,0-1.4-0.4c-0.2-0.2-0.2-0.3-0.5-0.1c-0.9,0.8-2,0.9-3.2,0.5c-1.8-0.6-2.6-2-2.8-3.8c-0.2-1.9,0.4-3.5,2.1-4.5
		C25.1,24.9,26.5,25,27.8,26.1L27.8,26.1z M24.1,29.9c0,0.5,0.2,0.9,0.4,1.3c0.6,0.7,1.6,0.9,2.4,0.3c0.1-0.1,0.2-0.2,0.3-0.3
		c0.6-0.8,0.6-2.1,0-2.9c-0.3-0.4-0.7-0.6-1.2-0.7C24.9,27.6,24.1,28.5,24.1,29.9z M34.9,30c-0.1-2.7,1.7-4.6,4.1-4.7
		c2.6-0.1,4.6,1.7,4.6,4.3c0.1,2.6-1.5,4.5-4,4.7C37,34.5,34.9,32.6,34.9,30L34.9,30z M37.5,29.7c0,0.5,0.1,1,0.4,1.4
		c0.6,0.7,1.6,0.9,2.4,0.3c0.1-0.1,0.2-0.2,0.3-0.3c0.6-0.8,0.6-2.1,0-2.9c-0.3-0.4-0.7-0.6-1.2-0.7C38.3,27.6,37.5,28.4,37.5,29.7z
		 M34,27.9c0,1.6,0,3.2,0,4.8c0,0.7-0.6,1.3-1.3,1.4c-0.1,0-0.3,0-0.4,0c-0.5-0.1-0.9-0.7-0.9-1.3v-8.2c0-0.5,0-1,0-1.4
		c0-0.8,0.5-1.3,1.3-1.3c0.8,0,1.3,0.5,1.3,1.3C34,24.7,34,26.3,34,27.9z"/>
</g>
</svg>
